<svg version="1.0" class="icon icon-archive" xmlns="http://www.w3.org/2000/svg" viewBox="0 0 24 24" height="1.25rem" width="1.25rem">
  <path d="M16 12.18c0 .55-.45 1-1 1H9c-.55 0-1-.45-1-1s.45-1 1-1h6c.55 0 1 .45 1 1Z" />
  <path fill-rule="evenodd" d="M20.36 9.43A2.233 2.233 0 0 0 22 7.28c0-.43-.05-.94-.14-1.5a2.885 2.885 0 0 0-2.47-2.4C18.12 3.21 15.8 3 12 3s-6.11.21-7.39.38a2.886 2.886 0 0 0-2.47 2.39C2.05 6.33 2 6.84 2 7.27c0 1.022.69 1.886 1.63 2.148V13c0 2.02.06 3.82.17 5.35a3.072 3.072 0 0 0 2.85 2.84c1.529.11 3.317.17 5.345.17 2.028 0 3.826-.06 5.345-.17a3.064 3.064 0 0 0 2.85-2.84c.08-1.04.17-2.81.17-5.35V9.43ZM4.23 7.5C4.1 7.5 4 7.39 4 7.27c0-.32.04-.72.11-1.17h.03c.06-.4.35-.68.76-.74C6.11 5.2 8.34 5 12.02 5s5.91.2 7.12.36c.4.06.69.34.76.74.07.45.11.85.11 1.17 0 .13-.11.23-.23.23H4.23Zm1.41 2V13c0 1.94.06 3.74.17 5.2.04.56.44.96 1 1 1.01.08 2.73.17 5.2.17s4.18-.09 5.2-.17c.56-.04.96-.44 1-1 .08-1.01.17-2.72.17-5.2V9.5H5.64Z" clip-rule="evenodd" />
</svg>
