<svg version="1.0" role="img" class="icon icon-bulb" xmlns="http://www.w3.org/2000/svg" viewBox="0 0 24 24" height="1.25rem" width="1.25rem" aria-hidden="true" focusable="false">
  <path fill-rule="evenodd" clip-rule="evenodd" d="m12 3c-3.585 0-6.5 2.9225-6.5 6.5385 0 2.2826 1.162 4.2913 2.9248 5.4615h7.1504c1.7628-1.1702 2.9248-3.1789 2.9248-5.4615 0-3.6159-2.915-6.5385-6.5-6.5385zm2.8653 14h-5.7306v1h5.7306v-1zm-1.1329 3h-3.4648c0.3458 0.5978 0.9921 1 1.7324 1s1.3866-0.4022 1.7324-1zm-5.6064 0c0.44403 1.7252 2.0101 3 3.874 3s3.43-1.2748 3.874-3c0.5483-0.0047 0.9913-0.4506 0.9913-1v-2.4593c2.1969-1.5431 3.6347-4.1045 3.6347-7.0022 0-4.7108-3.8008-8.5385-8.5-8.5385-4.6992 0-8.5 3.8276-8.5 8.5385 0 2.8977 1.4378 5.4591 3.6347 7.0022v2.4593c0 0.5494 0.44301 0.9953 0.99128 1z" />
</svg>
