<svg version="1.0" role="img" class="icon icon-calendar" xmlns="http://www.w3.org/2000/svg" viewBox="0 0 24 24" height="1.25rem" width="1.25rem" fill="currentColor" aria-hidden="true" focusable="false">
  <path fill-rule="evenodd" d="M7.38 2.041a2.101 2.101 0 0 0-1.336.83c-.271.366-.372.643-.461 1.256l-.021.145-.33.027c-1.048.087-1.9.548-2.448 1.32-.495.698-.575 1.124-.704 3.729-.141 2.873-.054 8.133.163 9.763.166 1.251 1.111 2.311 2.322 2.605 1.193.29 8.654.397 12.81.184 1.862-.096 2.12-.136 2.704-.423.797-.39 1.438-1.182 1.636-2.019.258-1.086.386-6.851.226-10.11-.127-2.574-.217-3.047-.7-3.723-.556-.781-1.403-1.239-2.453-1.326l-.329-.027-.021-.145c-.09-.613-.19-.89-.461-1.256-.349-.472-.803-.74-1.413-.836-.41-.064-1.183-.023-1.514.081-.734.231-1.323.915-1.453 1.689l-.05.297h-3.073l-.05-.297c-.13-.774-.717-1.456-1.454-1.69-.301-.095-1.231-.138-1.59-.074Zm1.048 2.057c.054.082.06.234.05 1.04-.007.657-.025.956-.058.99-.028.027-.18.047-.372.05-.482.002-.46.051-.475-1.059-.016-1.156-.031-1.117.453-1.117.313 0 .343.007.402.096Zm7.969.001c.054.083.062.23.05 1.02-.015 1.11.008 1.061-.475 1.058-.192-.002-.343-.022-.371-.05-.033-.033-.051-.332-.059-.99-.015-1.178-.032-1.135.452-1.135.315 0 .344.007.403.097Zm3.558 5.41c.097 2.442.084 6.05-.077 8.387-.034.474-.072.93-.086 1.013-.06.365-.437.77-.809.867-.16.043-.994.102-2.328.166-1.42.067-6.136.092-7.868.04-2.737-.08-3.675-.146-3.936-.28-.412-.21-.585-.485-.647-1.03-.204-1.8-.258-6.102-.132-9.172 1.92 0 13.928.009 15.883.009Z" clip-rule="evenodd" />
</svg>
