<svg version="1.0" role="img" class="icon icon-clock" xmlns="http://www.w3.org/2000/svg" viewBox="0 0 24 24" height="1.25rem" width="1.25rem" fill="currentColor" aria-hidden="true" focusable="false">
  <path fill-rule="evenodd" d="M12 6a1 1 0 0 1 1 1v5a1 1 0 0 1-.293.707l-3.5 3.5a1 1 0 0 1-1.414-1.414L11 11.586V7a1 1 0 0 1 1-1z" clip-rule="evenodd" />
  <path fill-rule="evenodd" d="M12 4a8 8 0 1 0 0 16 8 8 0 0 0 0-16zM2 12C2 6.477 6.477 2 12 2s10 4.477 10 10-4.477 10-10 10S2 17.523 2 12z" clip-rule="evenodd" />
</svg>
