<svg version="1.0" role="img" class="icon icon-code" xmlns="http://www.w3.org/2000/svg" viewBox="0 0 24 24" height="1.25rem" width="1.25rem" fill="currentColor" aria-hidden="true" focusable="false">
  <path fill-rule="evenodd" d="M16.001 3.19a1 1 0 0 1 1.047-.951l.314.016.063.003c.69.036 1.311.068 1.823.169.57.113 1.095.327 1.547.778.451.452.665.976.778 1.547.101.511.133 1.132.17 1.822l.002.063c.174 3.341.174 7.385 0 10.726l-.003.063c-.036.69-.068 1.31-.169 1.822-.113.57-.327 1.095-.778 1.546-.452.452-.976.666-1.547.779-.511.101-1.132.133-1.822.169l-.063.003a110.84 110.84 0 0 1-10.726 0l-.063-.003c-.69-.036-1.31-.068-1.822-.17-.57-.112-1.095-.326-1.546-.777-.452-.452-.666-.977-.779-1.547-.101-.512-.133-1.133-.169-1.823l-.003-.063a102.21 102.21 0 0 1-.125-4.353 1 1 0 0 1 2-.018c.012 1.478.053 2.932.122 4.267.04.774.067 1.248.137 1.601.062.31.139.43.23.521.093.092.212.17.522.23.353.07.826.098 1.6.138 3.272.17 7.246.17 10.519 0 .773-.04 1.247-.067 1.6-.137.31-.062.429-.139.52-.23.093-.093.17-.212.231-.522.07-.353.097-.826.137-1.6.17-3.272.17-7.246 0-10.519-.04-.773-.067-1.247-.137-1.6-.061-.31-.138-.429-.23-.52-.092-.092-.212-.17-.521-.231-.354-.07-.828-.097-1.601-.137l-.307-.015a1 1 0 0 1-.95-1.047Z" clip-rule="evenodd" />
  <path fill-rule="evenodd" d="M6.707 1.293a1 1 0 0 1 0 1.414L4.121 5.293c-.353.353-.545.549-.662.701A.838.838 0 0 0 3.455 6a.838.838 0 0 0 .004.006c.117.152.31.348.662.701l2.586 2.586a1 1 0 0 1-1.414 1.414L2.707 8.121l-.038-.038c-.3-.3-.592-.591-.8-.864-.234-.307-.455-.705-.455-1.219 0-.514.22-.912.455-1.219.208-.273.5-.564.8-.864l.038-.038 2.586-2.586a1 1 0 0 1 1.414 0Zm2.586 0a1 1 0 0 1 1.414 0l2.586 2.586.039.038c.3.3.59.591.799.864.234.307.455.705.455 1.219 0 .514-.22.912-.455 1.219-.208.273-.5.564-.8.864l-.038.038-2.586 2.586a1 1 0 0 1-1.414-1.414l2.586-2.586c.353-.353.546-.549.662-.701L12.545 6l-.004-.006c-.117-.152-.309-.348-.662-.701L9.293 2.707a1 1 0 0 1 0-1.414Z" clip-rule="evenodd" />
</svg>
