<svg version="1.0" role="img" class="icon icon-copy" xmlns="http://www.w3.org/2000/svg" viewBox="0 0 24 24" height="1.25rem" width="1.25rem" aria-hidden="true" focusable="false">
  <path d="M3.31 16.79c.18.14.4.21.61.21v.01c.3 0 .59-.14.79-.39a.993.993 0 0 0-.18-1.4c-.22-.18-.36-.44-.38-.74-.1-1.34-.15-2.92-.15-4.69 0-1.77.05-3.35.15-4.69.03-.53.41-.91.94-.95C6.42 4.05 7.99 4 9.76 4s3.34.05 4.67.15c.31.02.58.17.75.41.33.45.95.55 1.4.23.45-.33.55-.95.23-1.4a3.006 3.006 0 0 0-2.23-1.24c-1.38-.1-3-.15-4.82-.15-1.82 0-3.44.05-4.82.15-1.5.11-2.68 1.29-2.78 2.81-.1 1.39-.15 3.01-.15 4.83 0 1.82.05 3.44.15 4.83.06.86.48 1.65 1.15 2.17Z" />
  <path fill-rule="evenodd" d="M9.01 21.84c1.43.11 3.11.16 4.99.16 1.88 0 3.55-.06 4.98-.16a3.068 3.068 0 0 0 2.86-2.86c.11-1.42.16-3.1.16-4.98 0-1.88-.06-3.56-.16-4.99a3.068 3.068 0 0 0-2.86-2.86c-1.44-.11-3.12-.16-4.99-.16s-3.55.06-4.98.16a3.068 3.068 0 0 0-2.86 2.86c-.11 1.44-.16 3.12-.16 4.99s.06 3.55.16 4.98a3.068 3.068 0 0 0 2.86 2.86ZM8.15 9.16c.04-.55.46-.97 1.01-1.01C10.54 8.05 12.17 8 14 8s3.46.05 4.84.15c.55.04.97.46 1.01 1.01.1 1.38.15 3.01.15 4.84s-.05 3.46-.15 4.84c-.04.55-.46.97-1.01 1.01-1.38.1-3.01.15-4.84.15s-3.46-.05-4.84-.15a1.07 1.07 0 0 1-1.01-1.01C8.05 17.46 8 15.83 8 14s.05-3.46.15-4.84Z" clip-rule="evenodd" />
</svg>
