<svg version="1.0" role="img" class="icon icon-envelope" xmlns="http://www.w3.org/2000/svg" viewBox="0 0 24 24" height="1.25rem" width="1.25rem" fill="currentColor" aria-hidden="true" focusable="false">
  <path fill-rule="evenodd" clip-rule="evenodd" d="M2 7C2 5.34315 3.34315 4 5 4H19C20.6569 4 22 5.34315 22 7V17C22 18.6569 20.6569 20 19 20H5C3.34315 20 2 18.6569 2 17V7ZM4.26834 6.31832L11.4233 11.3689C11.769 11.6129 12.231 11.6129 12.5767 11.3689L19.7317 6.31832C19.5491 6.12247 19.2889 6 19 6H5C4.71114 6 4.45089 6.12247 4.26834 6.31832ZM20 8.57698L13.7301 13.0028C12.6929 13.735 11.3071 13.735 10.2699 13.0028L4 8.57698V17C4 17.5523 4.44772 18 5 18H19C19.5523 18 20 17.5523 20 17V8.57698Z" />
</svg>
