<svg version="1.0" role="img" class="icon icon-folder" xmlns="http://www.w3.org/2000/svg" viewBox="0 0 24 24" height="1.25rem" width="1.25rem" aria-hidden="true" focusable="false">
  <path fill-rule="evenodd" d="M4.959 19.793A2.958 2.958 0 0 1 2 16.835V6.97A1.97 1.97 0 0 1 3.972 5h4.523c.523 0 1.025.208 1.395.578l1.887 1.888h5.016c1.09 0 1.973.883 1.973 1.972v7.396a2.959 2.959 0 0 1-2.96 2.96H4.96Zm-.987-2.958c0 .544.442.986.987.986h10.848a.986.986 0 0 0 .986-.987V9.438h-5.016a1.972 1.972 0 0 1-1.394-.578L8.495 6.972H3.972v9.863Z" clip-rule="evenodd" />
</svg>
