<svg version="1.0" role="img" class="icon icon-folder-open" xmlns="http://www.w3.org/2000/svg" viewBox="0 0 24 24" height="1.25rem" width="1.25rem" aria-hidden="true" focusable="false">
  <path fill-rule="evenodd" d="M4.959 19.793A2.958 2.958 0 0 1 2 16.835V6.97A1.97 1.97 0 0 1 3.972 5h4.523c.523 0 1.025.208 1.395.578l1.887 1.888h5.016c1.09 0 1.973.883 1.973 1.972v7.396a2.959 2.959 0 0 1-2.96 2.96H4.96Zm-.987-2.958c0 .544.442.986.987.986h10.848a.986.986 0 0 0 .986-.987V9.438h-5.016a1.972 1.972 0 0 1-1.394-.578L8.495 6.972H3.972v9.863Z" clip-rule="evenodd" />
  <path d="M3.465 16.528c-.633.984.075 2.279 1.245 2.279h12.214c.531 0 1.018-.285 1.281-.745l2.676-4.683a.986.986 0 0 0-.856-1.476H7.245a1.48 1.48 0 0 0-1.244.68l-2.536 3.945Z" />
  <path fill-rule="evenodd" d="M4.71 19.793c-1.95 0-3.13-2.157-2.074-3.799l2.536-3.944a2.466 2.466 0 0 1 2.074-1.133h12.779c1.514 0 2.464 1.636 1.712 2.951l-2.675 4.683a2.46 2.46 0 0 1-2.138 1.242H4.71Zm-.415-2.732c-.21.328.024.76.415.76h12.214a.488.488 0 0 0 .425-.249l2.676-4.682H7.245a.493.493 0 0 0-.414.226l-2.536 3.945Z" clip-rule="evenodd" />
</svg>
