<svg version="1.0" role="img" class="icon icon-history" xmlns="http://www.w3.org/2000/svg" viewBox="0 0 24 24" height="1.25rem" width="1.25rem" aria-hidden="true" focusable="false">
  <path fill-rule="evenodd" d="M6.25 9.542C7.258 6.893 9.85 5 12.9 5c3.933 0 7.1 3.146 7.1 7s-3.167 7-7.1 7a7.115 7.115 0 0 1-6.153-3.505 1 1 0 1 0-1.726 1.01A9.115 9.115 0 0 0 12.9 21c5.014 0 9.1-4.018 9.1-9s-4.086-9-9.1-9C8.628 3 5.03 5.917 4.058 9.862l-.355-.351a1 1 0 0 0-1.406 1.423l1.8 1.777a1 1 0 0 0 1.332.067L7.629 11A1 1 0 1 0 6.37 9.444l-.12.098zM14 8a1 1 0 1 0-2 0v4a1 1 0 0 0 1 1h3a1 1 0 1 0 0-2h-2V8z" clip-rule="evenodd" />
</svg>
