<svg version="1.0" role="img" class="icon icon-info-circle" xmlns="http://www.w3.org/2000/svg" viewBox="0 0 24 24" height="1.25rem" width="1.25rem" aria-hidden="true" focusable="false">
  <path d="M9.5 11a1 1 0 0 1 1-1H12a1 1 0 0 1 1 1v4h1a1 1 0 1 1 0 2h-4a1 1 0 1 1 0-2h1v-3h-.5a1 1 0 0 1-1-1ZM12 9a1.25 1.25 0 1 0 0-2.5A1.25 1.25 0 0 0 12 9Z" />
  <path fill-rule="evenodd" d="M2 12C2 6.477 6.477 2 12 2s10 4.477 10 10-4.477 10-10 10S2 17.523 2 12Zm10-8a8 8 0 1 0 0 16 8 8 0 0 0 0-16Z" clip-rule="evenodd" />
</svg>
