<svg version="1.0" class="icon icon-list" xmlns="http://www.w3.org/2000/svg" viewBox="0 0 24 24" height="1.25rem" width="1.25rem">
  <path d="M4.987 7.142c.64 0 1.16-.52 1.16-1.16h.01c0-.64-.52-1.16-1.16-1.16-.64 0-1.16.53-1.16 1.16 0 .63.51 1.16 1.15 1.16Zm0 6.01a1.16 1.16 0 1 0-.002-2.322 1.16 1.16 0 0 0 .002 2.322Zm1.16 4.86a1.16 1.16 0 1 1-2.322-.002 1.16 1.16 0 0 1 2.322.002Zm3.3-13.03c-.42.02-.76.26-.79.66-.01.1-.01.21-.01.34 0 .07.003.133.006.192.002.052.004.101.004.148.03.4.37.64.79.66.71.03 2.13.06 4.91.06 2.78 0 4.2-.03 4.91-.06.42-.02.76-.26.79-.66.01-.1.01-.21.01-.34 0-.07-.003-.133-.005-.192a3.26 3.26 0 0 1-.005-.148c-.03-.4-.37-.64-.79-.66-.71-.03-2.13-.06-4.91-.06-2.78 0-4.2.03-4.91.06Zm-.79 6.68c.03-.4.37-.64.79-.66.71-.03 2.13-.06 4.91-.06 2.78 0 4.2.03 4.91.06.42.02.76.26.79.66 0 .047.002.095.005.148.002.059.005.123.005.192 0 .13 0 .24-.01.34-.03.4-.37.64-.79.66-.71.03-2.13.06-4.91.06-2.78 0-4.2-.03-4.91-.06-.42-.02-.76-.26-.79-.66 0-.047-.002-.096-.004-.148a3.746 3.746 0 0 1-.006-.192c0-.13 0-.24.01-.34Zm.79 5.35c-.42.02-.76.26-.79.66-.01.1-.01.21-.01.34 0 .07.003.133.006.192.002.052.004.101.004.148.03.4.37.64.79.66.71.03 2.13.06 4.91.06 2.78 0 4.2-.03 4.91-.06.42-.02.76-.26.79-.66.01-.1.01-.21.01-.34 0-.07-.003-.133-.005-.192a3.255 3.255 0 0 1-.005-.148c-.03-.4-.37-.64-.79-.66-.71-.03-2.13-.06-4.91-.06-2.78 0-4.2.03-4.91.06Z" />
</svg>
