<svg version="1.0" role="img" class="icon icon-search" xmlns="http://www.w3.org/2000/svg" viewBox="0 0 24 24" height="1.25rem" width="1.25rem" fill="currentColor" aria-hidden="true" focusable="false">
  <path fill-rule="evenodd" d="M10.5 4a6.5 6.5 0 1 0 0 13 6.5 6.5 0 0 0 0-13ZM2 10.5a8.5 8.5 0 1 1 17 0 8.5 8.5 0 0 1-17 0Z" clip-rule="evenodd" />
  <path fill-rule="evenodd" d="M19.496 15.63c.591.477 1.207.997 1.757 1.592 1.093 1.182.87 2.78-.141 3.798-.474.476-1.087.838-1.781.93-.72.097-1.447-.112-2.05-.643-.623-.55-1.159-1.181-1.642-1.785a75.275 75.275 0 0 1-.448-.568c-.32-.407-.621-.79-.944-1.16l1.506-1.316c.359.41.712.861 1.048 1.288.136.174.27.344.4.506.466.582.914 1.104 1.403 1.535.174.153.324.18.463.161.165-.022.393-.123.626-.358.376-.378.347-.754.092-1.03-.448-.484-.97-.93-1.544-1.393l-.475-.379a35.454 35.454 0 0 1-1.287-1.055l1.316-1.506c.377.33.766.638 1.177.965l.524.418Z" clip-rule="evenodd" />
</svg>
