<svg version="1.0" role="img" class="icon icon-tag" xmlns="http://www.w3.org/2000/svg" viewBox="0 0 24 24" height="1.25rem" width="1.25rem" fill="currentColor" aria-hidden="true" focusable="false">
  <path fill-rule="evenodd" d="M14.025 4.159c.083-.058.228-.103.452-.066l3.95.659a1 1 0 0 1 .822.822l.658 3.949c.037.224-.008.37-.066.452-.755 1.079-2.516 3.022-4.45 4.97-1.929 1.941-3.94 3.796-5.16 4.71a.424.424 0 0 1-.514.004c-1.71-1.186-4.19-3.665-5.376-5.376a.424.424 0 0 1 .004-.515c.914-1.22 2.769-3.23 4.71-5.158 1.948-1.935 3.891-3.696 4.97-4.451Zm.781-2.038c-.61-.102-1.317-.028-1.927.399-1.235.864-3.286 2.736-5.233 4.67-1.953 1.941-3.895 4.036-4.901 5.38a2.423 2.423 0 0 0-.048 2.853c1.323 1.907 3.973 4.557 5.88 5.88.865.6 2 .592 2.854-.047 1.343-1.007 3.438-2.948 5.379-4.902 1.934-1.947 3.806-3.998 4.67-5.232.427-.61.501-1.319.4-1.928l-.659-3.95a3 3 0 0 0-2.466-2.465l-3.949-.658ZM16.008 8l-.001.003c0 .002-.001.002-.002.002l-.002.002h-.006l-.002-.001-.002-.003v-.006c0-.002.001-.002.002-.002l.002-.002h.006c.002 0 .002.001.003.002v.002l.002.002V8ZM16 6.5a1.5 1.5 0 1 0 0 3 1.5 1.5 0 0 0 0-3Z" clip-rule="evenodd" />
</svg>
