<svg xmlns="http://www.w3.org/2000/svg" style="display:none;">
  <symbol id="icon-arrow-up" viewBox="0 0 24 24">
    <path d="M17.71,11.29l-5-5a1,1,0,0,0-.33-.21,1,1,0,0,0-.76,0,1,1,0,0,0-.33.21l-5,5a1,1,0,0,0,1.42,1.42L11,9.41V17a1,1,0,0,0,2,0V9.41l3.29,3.3a1,1,0,0,0,1.42,0A1,1,0,0,0,17.71,11.29Z" />
  </symbol>
  <symbol id="icon-emoji-sad" viewBox="0 0 24 24">
    <path d="M8.36,15.33a1,1,0,0,0-.13,1.4,1,1,0,0,0,1.41.13,3.76,3.76,0,0,1,4.72,0,1,1,0,0,0,.64.23,1,1,0,0,0,.64-1.76A5.81,5.81,0,0,0,8.36,15.33Zm.85-4.79a1,1,0,0,0,1.41,0,1,1,0,0,0,0-1.41,3.08,3.08,0,0,0-4.24,0,1,1,0,1,0,1.41,1.41A1,1,0,0,1,9.21,10.54ZM12,2A10,10,0,1,0,22,12,10,10,0,0,0,12,2Zm0,18a8,8,0,1,1,8-8A8,8,0,0,1,12,20ZM17.62,9.13a3.08,3.08,0,0,0-4.24,0,1,1,0,0,0,1.41,1.41,1,1,0,0,1,1.42,0,1,1,0,0,0,1.41,0A1,1,0,0,0,17.62,9.13Z" />
  </symbol>
  <symbol id="icon-envelope" viewBox="0 0 24 24">
    <path d="M19,4H5A3,3,0,0,0,2,7V17a3,3,0,0,0,3,3H19a3,3,0,0,0,3-3V7A3,3,0,0,0,19,4Zm-.41,2-5.88,5.88a1,1,0,0,1-1.42,0L5.41,6ZM20,17a1,1,0,0,1-1,1H5a1,1,0,0,1-1-1V7.41l5.88,5.88a3,3,0,0,0,4.24,0L20,7.41Z" />
  </symbol>
  <symbol id="icon-file" viewBox="0 0 24 24">
    <path d="M20,8.94a1.31,1.31,0,0,0-.06-.27l0-.09a1.07,1.07,0,0,0-.19-.28h0l-6-6h0a1.07,1.07,0,0,0-.28-.19l-.09,0L13.06,2H7A3,3,0,0,0,4,5V19a3,3,0,0,0,3,3H17a3,3,0,0,0,3-3V9S20,9,20,8.94ZM14,5.41,16.59,8H14ZM18,19a1,1,0,0,1-1,1H7a1,1,0,0,1-1-1V5A1,1,0,0,1,7,4h5V9a1,1,0,0,0,1,1h5Z" />
  </symbol>
  <symbol id="icon-github" viewBox="0 0 24 24">
    <path d="M12,2.2467A10.00042,10.00042,0,0,0,8.83752,21.73419c.5.08752.6875-.21247.6875-.475,0-.23749-.01251-1.025-.01251-1.86249C7,19.85919,6.35,18.78423,6.15,18.22173A3.636,3.636,0,0,0,5.125,16.8092c-.35-.1875-.85-.65-.01251-.66248A2.00117,2.00117,0,0,1,6.65,17.17169a2.13742,2.13742,0,0,0,2.91248.825A2.10376,2.10376,0,0,1,10.2,16.65923c-2.225-.25-4.55-1.11254-4.55-4.9375a3.89187,3.89187,0,0,1,1.025-2.6875,3.59373,3.59373,0,0,1,.1-2.65s.83747-.26251,2.75,1.025a9.42747,9.42747,0,0,1,5,0c1.91248-1.3,2.75-1.025,2.75-1.025a3.59323,3.59323,0,0,1,.1,2.65,3.869,3.869,0,0,1,1.025,2.6875c0,3.83747-2.33752,4.6875-4.5625,4.9375a2.36814,2.36814,0,0,1,.675,1.85c0,1.33752-.01251,2.41248-.01251,2.75,0,.26251.1875.575.6875.475A10.0053,10.0053,0,0,0,12,2.2467Z" />
  </symbol>
  <symbol id="icon-home" viewBox="0 0 24 24">
    <path d="M21.66,10.25l-9-8a1,1,0,0,0-1.32,0l-9,8a1,1,0,0,0-.27,1.11A1,1,0,0,0,3,12H4v9a1,1,0,0,0,1,1H19a1,1,0,0,0,1-1V12h1a1,1,0,0,0,.93-.64A1,1,0,0,0,21.66,10.25ZM13,20H11V17a1,1,0,0,1,2,0Zm5,0H15V17a3,3,0,0,0-6,0v3H6V12H18ZM5.63,10,12,4.34,18.37,10Z" />
  </symbol>
  <symbol id="icon-info-circle" viewBox="0 0 24 24">
    <path d="M12,2A10,10,0,1,0,22,12,10.01114,10.01114,0,0,0,12,2Zm0,18a8,8,0,1,1,8-8A8.00917,8.00917,0,0,1,12,20Zm0-8.5a1,1,0,0,0-1,1v3a1,1,0,0,0,2,0v-3A1,1,0,0,0,12,11.5Zm0-4a1.25,1.25,0,1,0,1.25,1.25A1.25,1.25,0,0,0,12,7.5Z" />
  </symbol>
  <symbol id="icon-instagram" viewBox="0 0 24 24">
    <path d="M17.34,5.46h0a1.2,1.2,0,1,0,1.2,1.2A1.2,1.2,0,0,0,17.34,5.46Zm4.6,2.42a7.59,7.59,0,0,0-.46-2.43,4.94,4.94,0,0,0-1.16-1.77,4.7,4.7,0,0,0-1.77-1.15,7.3,7.3,0,0,0-2.43-.47C15.06,2,14.72,2,12,2s-3.06,0-4.12.06a7.3,7.3,0,0,0-2.43.47A4.78,4.78,0,0,0,3.68,3.68,4.7,4.7,0,0,0,2.53,5.45a7.3,7.3,0,0,0-.47,2.43C2,8.94,2,9.28,2,12s0,3.06.06,4.12a7.3,7.3,0,0,0,.47,2.43,4.7,4.7,0,0,0,1.15,1.77,4.78,4.78,0,0,0,1.77,1.15,7.3,7.3,0,0,0,2.43.47C8.94,22,9.28,22,12,22s3.06,0,4.12-.06a7.3,7.3,0,0,0,2.43-.47,4.7,4.7,0,0,0,1.77-1.15,4.85,4.85,0,0,0,1.16-1.77,7.59,7.59,0,0,0,.46-2.43c0-1.06.06-1.4.06-4.12S22,8.94,21.94,7.88ZM20.14,16a5.61,5.61,0,0,1-.34,1.86,3.06,3.06,0,0,1-.75,1.15,3.19,3.19,0,0,1-1.15.75,5.61,5.61,0,0,1-1.86.34c-1,.05-1.37.06-4,.06s-3,0-4-.06A5.73,5.73,0,0,1,6.1,19.8,3.27,3.27,0,0,1,5,19.05a3,3,0,0,1-.74-1.15A5.54,5.54,0,0,1,3.86,16c0-1-.06-1.37-.06-4s0-3,.06-4A5.54,5.54,0,0,1,4.21,6.1,3,3,0,0,1,5,5,3.14,3.14,0,0,1,6.1,4.2,5.73,5.73,0,0,1,8,3.86c1,0,1.37-.06,4-.06s3,0,4,.06a5.61,5.61,0,0,1,1.86.34A3.06,3.06,0,0,1,19.05,5,3.06,3.06,0,0,1,19.8,6.1,5.61,5.61,0,0,1,20.14,8c.05,1,.06,1.37.06,4S20.19,15,20.14,16ZM12,6.87A5.13,5.13,0,1,0,17.14,12,5.12,5.12,0,0,0,12,6.87Zm0,8.46A3.33,3.33,0,1,1,15.33,12,3.33,3.33,0,0,1,12,15.33Z" />
  </symbol>
  <symbol id="icon-linkedin" viewBox="0 0 24 24">
    <path d="M20.47,2H3.53A1.45,1.45,0,0,0,2.06,3.43V20.57A1.45,1.45,0,0,0,3.53,22H20.47a1.45,1.45,0,0,0,1.47-1.43V3.43A1.45,1.45,0,0,0,20.47,2ZM8.09,18.74h-3v-9h3ZM6.59,8.48h0a1.56,1.56,0,1,1,0-3.12,1.57,1.57,0,1,1,0,3.12ZM18.91,18.74h-3V13.91c0-1.21-.43-2-1.52-2A1.65,1.65,0,0,0,12.85,13a2,2,0,0,0-.1.73v5h-3s0-8.18,0-9h3V11A3,3,0,0,1,15.46,9.5c2,0,3.45,1.29,3.45,4.06Z" />
  </symbol>
</svg>
