<svg xmlns="http://www.w3.org/2000/svg" style="display:none;">
  <symbol id="icon-arrow-up" viewBox="0 0 24 24">
    <path d="M17.71,11.29l-5-5a1,1,0,0,0-.33-.21,1,1,0,0,0-.76,0,1,1,0,0,0-.33.21l-5,5a1,1,0,0,0,1.42,1.42L11,9.41V17a1,1,0,0,0,2,0V9.41l3.29,3.3a1,1,0,0,0,1.42,0A1,1,0,0,0,17.71,11.29Z" />
  </symbol>
  <symbol id="icon-emoji-sad" viewBox="0 0 24 24">
    <path d="M8.36,15.33a1,1,0,0,0-.13,1.4,1,1,0,0,0,1.41.13,3.76,3.76,0,0,1,4.72,0,1,1,0,0,0,.64.23,1,1,0,0,0,.64-1.76A5.81,5.81,0,0,0,8.36,15.33Zm.85-4.79a1,1,0,0,0,1.41,0,1,1,0,0,0,0-1.41,3.08,3.08,0,0,0-4.24,0,1,1,0,1,0,1.41,1.41A1,1,0,0,1,9.21,10.54ZM12,2A10,10,0,1,0,22,12,10,10,0,0,0,12,2Zm0,18a8,8,0,1,1,8-8A8,8,0,0,1,12,20ZM17.62,9.13a3.08,3.08,0,0,0-4.24,0,1,1,0,0,0,1.41,1.41,1,1,0,0,1,1.42,0,1,1,0,0,0,1.41,0A1,1,0,0,0,17.62,9.13Z" />
  </symbol>
  <symbol id="icon-envelope" viewBox="0 0 24 24">
    <path fill-rule="evenodd" clip-rule="evenodd" d="M2 7C2 5.34315 3.34315 4 5 4H19C20.6569 4 22 5.34315 22 7V17C22 18.6569 20.6569 20 19 20H5C3.34315 20 2 18.6569 2 17V7ZM4.26834 6.31832L11.4233 11.3689C11.769 11.6129 12.231 11.6129 12.5767 11.3689L19.7317 6.31832C19.5491 6.12247 19.2889 6 19 6H5C4.71114 6 4.45089 6.12247 4.26834 6.31832ZM20 8.57698L13.7301 13.0028C12.6929 13.735 11.3071 13.735 10.2699 13.0028L4 8.57698V17C4 17.5523 4.44772 18 5 18H19C19.5523 18 20 17.5523 20 17V8.57698Z" />
  </symbol>
  <symbol id="icon-file" viewBox="0 0 24 24">
    <path fill-rule="evenodd" clip-rule="evenodd" d="M4 5C4 3.34315 5.34315 2 7 2H14.1716C14.9672 2 15.7303 2.31607 16.2929 2.87868L19.1213 5.70711C19.6839 6.26972 20 7.03278 20 7.82843V19C20 20.6569 18.6569 22 17 22H7C5.34315 22 4 20.6569 4 19V5ZM7 4C6.44772 4 6 4.44772 6 5V19C6 19.5523 6.44772 20 7 20H17C17.5523 20 18 19.5523 18 19V7.82843C18 7.56321 17.8946 7.30886 17.7071 7.12132L14.8787 4.29289C14.6911 4.10536 14.4368 4 14.1716 4H7ZM8 10C8 9.44772 8.44772 9 9 9H15C15.5523 9 16 9.44772 16 10C16 10.5523 15.5523 11 15 11H9C8.44772 11 8 10.5523 8 10ZM8 14C8 13.4477 8.44772 13 9 13H13C13.5523 13 14 13.4477 14 14C14 14.5523 13.5523 15 13 15H9C8.44772 15 8 14.5523 8 14Z" />
  </symbol>
  <symbol id="icon-github" viewBox="0 0 24 24">
    <path d="M12,2.2467A10.00042,10.00042,0,0,0,8.83752,21.73419c.5.08752.6875-.21247.6875-.475,0-.23749-.01251-1.025-.01251-1.86249C7,19.85919,6.35,18.78423,6.15,18.22173A3.636,3.636,0,0,0,5.125,16.8092c-.35-.1875-.85-.65-.01251-.66248A2.00117,2.00117,0,0,1,6.65,17.17169a2.13742,2.13742,0,0,0,2.91248.825A2.10376,2.10376,0,0,1,10.2,16.65923c-2.225-.25-4.55-1.11254-4.55-4.9375a3.89187,3.89187,0,0,1,1.025-2.6875,3.59373,3.59373,0,0,1,.1-2.65s.83747-.26251,2.75,1.025a9.42747,9.42747,0,0,1,5,0c1.91248-1.3,2.75-1.025,2.75-1.025a3.59323,3.59323,0,0,1,.1,2.65,3.869,3.869,0,0,1,1.025,2.6875c0,3.83747-2.33752,4.6875-4.5625,4.9375a2.36814,2.36814,0,0,1,.675,1.85c0,1.33752-.01251,2.41248-.01251,2.75,0,.26251.1875.575.6875.475A10.0053,10.0053,0,0,0,12,2.2467Z" />
  </symbol>
  <symbol id="icon-home" viewBox="0 0 24 24">
    <path d="M20,8h0L14,2.74a3,3,0,0,0-4,0L4,8a3,3,0,0,0-1,2.26V19a3,3,0,0,0,3,3H18a3,3,0,0,0,3-3V10.25A3,3,0,0,0,20,8ZM14,20H10V15a1,1,0,0,1,1-1h2a1,1,0,0,1,1,1Zm5-1a1,1,0,0,1-1,1H16V15a3,3,0,0,0-3-3H11a3,3,0,0,0-3,3v5H6a1,1,0,0,1-1-1V10.25a1,1,0,0,1,.34-.75l6-5.25a1,1,0,0,1,1.32,0l6,5.25a1,1,0,0,1,.34.75Z" />
  </symbol>
  <symbol id="icon-info-circle" viewBox="0 0 24 24">
    <path fill-rule="evenodd" d="M2 12C2 6.477 6.477 2 12 2s10 4.477 10 10-4.477 10-10 10S2 17.523 2 12Zm10-8a8 8 0 1 0 0 16 8 8 0 0 0 0-16Zm-1.5 3.75a1.75 1.75 0 1 1 3.5 0 1.75 1.75 0 0 1-3.5 0Zm2.118 2.963a1 1 0 0 1 .357 1.01l-.816 3.58.68-.34a1 1 0 1 1 .894 1.789l-1.355.677c-1.241.62-2.645-.482-2.337-1.834l.514-2.255-.108.054a1 1 0 1 1-.894-1.788l2-1a1 1 0 0 1 1.065.107Z" clip-rule="evenodd" />
  </symbol>
  <symbol id="icon-instagram" viewBox="0 0 24 24">
    <path d="M17.34,5.46h0a1.2,1.2,0,1,0,1.2,1.2A1.2,1.2,0,0,0,17.34,5.46Zm4.6,2.42a7.59,7.59,0,0,0-.46-2.43,4.94,4.94,0,0,0-1.16-1.77,4.7,4.7,0,0,0-1.77-1.15,7.3,7.3,0,0,0-2.43-.47C15.06,2,14.72,2,12,2s-3.06,0-4.12.06a7.3,7.3,0,0,0-2.43.47A4.78,4.78,0,0,0,3.68,3.68,4.7,4.7,0,0,0,2.53,5.45a7.3,7.3,0,0,0-.47,2.43C2,8.94,2,9.28,2,12s0,3.06.06,4.12a7.3,7.3,0,0,0,.47,2.43,4.7,4.7,0,0,0,1.15,1.77,4.78,4.78,0,0,0,1.77,1.15,7.3,7.3,0,0,0,2.43.47C8.94,22,9.28,22,12,22s3.06,0,4.12-.06a7.3,7.3,0,0,0,2.43-.47,4.7,4.7,0,0,0,1.77-1.15,4.85,4.85,0,0,0,1.16-1.77,7.59,7.59,0,0,0,.46-2.43c0-1.06.06-1.4.06-4.12S22,8.94,21.94,7.88ZM20.14,16a5.61,5.61,0,0,1-.34,1.86,3.06,3.06,0,0,1-.75,1.15,3.19,3.19,0,0,1-1.15.75,5.61,5.61,0,0,1-1.86.34c-1,.05-1.37.06-4,.06s-3,0-4-.06A5.73,5.73,0,0,1,6.1,19.8,3.27,3.27,0,0,1,5,19.05a3,3,0,0,1-.74-1.15A5.54,5.54,0,0,1,3.86,16c0-1-.06-1.37-.06-4s0-3,.06-4A5.54,5.54,0,0,1,4.21,6.1,3,3,0,0,1,5,5,3.14,3.14,0,0,1,6.1,4.2,5.73,5.73,0,0,1,8,3.86c1,0,1.37-.06,4-.06s3,0,4,.06a5.61,5.61,0,0,1,1.86.34A3.06,3.06,0,0,1,19.05,5,3.06,3.06,0,0,1,19.8,6.1,5.61,5.61,0,0,1,20.14,8c.05,1,.06,1.37.06,4S20.19,15,20.14,16ZM12,6.87A5.13,5.13,0,1,0,17.14,12,5.12,5.12,0,0,0,12,6.87Zm0,8.46A3.33,3.33,0,1,1,15.33,12,3.33,3.33,0,0,1,12,15.33Z" />
  </symbol>
  <symbol id="icon-linkedin" viewBox="0 0 24 24">
    <path d="M20.47,2H3.53A1.45,1.45,0,0,0,2.06,3.43V20.57A1.45,1.45,0,0,0,3.53,22H20.47a1.45,1.45,0,0,0,1.47-1.43V3.43A1.45,1.45,0,0,0,20.47,2ZM8.09,18.74h-3v-9h3ZM6.59,8.48h0a1.56,1.56,0,1,1,0-3.12,1.57,1.57,0,1,1,0,3.12ZM18.91,18.74h-3V13.91c0-1.21-.43-2-1.52-2A1.65,1.65,0,0,0,12.85,13a2,2,0,0,0-.1.73v5h-3s0-8.18,0-9h3V11A3,3,0,0,1,15.46,9.5c2,0,3.45,1.29,3.45,4.06Z" />
  </symbol>
</svg>
