
<svg xmlns="http://www.w3.org/2000/svg">
  <symbol id="icon-adjust" viewBox="0 0 24 24">
    <path d="M12 2C6.579 2 2 6.58 2 12s4.579 10 10 10 10-4.58 10-10S17.421 2 12 2zm0 17V5c3.829 0 7 3.169 7 7 0 3.828-3.171 7-7 7z" />
  </symbol>
  <symbol id="icon-arrow-up" viewBox="0 0 24 24">
    <path d="M17.71,11.29l-5-5a1,1,0,0,0-.33-.21,1,1,0,0,0-.76,0,1,1,0,0,0-.33.21l-5,5a1,1,0,0,0,1.42,1.42L11,9.41V17a1,1,0,0,0,2,0V9.41l3.29,3.3a1,1,0,0,0,1.42,0A1,1,0,0,0,17.71,11.29Z" />
  </symbol>
  <symbol id="icon-calendar" viewBox="0 0 24 24">
    <path fill-rule="evenodd" d="M7.38 2.041a2.101 2.101 0 0 0-1.336.83c-.271.366-.372.643-.461 1.256l-.021.145-.33.027c-1.048.087-1.9.548-2.448 1.32-.495.698-.575 1.124-.704 3.729-.141 2.873-.054 8.133.163 9.763.166 1.251 1.111 2.311 2.322 2.605 1.193.29 8.654.397 12.81.184 1.862-.096 2.12-.136 2.704-.423.797-.39 1.438-1.182 1.636-2.019.258-1.086.386-6.851.226-10.11-.127-2.574-.217-3.047-.7-3.723-.556-.781-1.403-1.239-2.453-1.326l-.329-.027-.021-.145c-.09-.613-.19-.89-.461-1.256-.349-.472-.803-.74-1.413-.836-.41-.064-1.183-.023-1.514.081-.734.231-1.323.915-1.453 1.689l-.05.297h-3.073l-.05-.297c-.13-.774-.717-1.456-1.454-1.69-.301-.095-1.231-.138-1.59-.074Zm1.048 2.057c.054.082.06.234.05 1.04-.007.657-.025.956-.058.99-.028.027-.18.047-.372.05-.482.002-.46.051-.475-1.059-.016-1.156-.031-1.117.453-1.117.313 0 .343.007.402.096Zm7.969.001c.054.083.062.23.05 1.02-.015 1.11.008 1.061-.475 1.058-.192-.002-.343-.022-.371-.05-.033-.033-.051-.332-.059-.99-.015-1.178-.032-1.135.452-1.135.315 0 .344.007.403.097Zm3.558 5.41c.097 2.442.084 6.05-.077 8.387-.034.474-.072.93-.086 1.013-.06.365-.437.77-.809.867-.16.043-.994.102-2.328.166-1.42.067-6.136.092-7.868.04-2.737-.08-3.675-.146-3.936-.28-.412-.21-.585-.485-.647-1.03-.204-1.8-.258-6.102-.132-9.172 1.92 0 13.928.009 15.883.009Z" clip-rule="evenodd" />
  </symbol>
  <symbol id="icon-clock" viewBox="0 0 24 24">
    <path fill-rule="evenodd" d="M12 6a1 1 0 0 1 1 1v5a1 1 0 0 1-.293.707l-3.5 3.5a1 1 0 0 1-1.414-1.414L11 11.586V7a1 1 0 0 1 1-1z" clip-rule="evenodd" />
    <path fill-rule="evenodd" d="M12 4a8 8 0 1 0 0 16 8 8 0 0 0 0-16zM2 12C2 6.477 6.477 2 12 2s10 4.477 10 10-4.477 10-10 10S2 17.523 2 12z" clip-rule="evenodd" />
  </symbol>
  <symbol id="icon-device-desktop" viewBox="0 0 24 24">
    <path d="M19,3H5A3,3,0,0,0,2,6v8a3,3,0,0,0,3,3h6v2H7a1,1,0,0,0,0,2H17a1,1,0,0,0,0-2H13V17h6a3,3,0,0,0,3-3V6A3,3,0,0,0,19,3Zm1,11a1,1,0,0,1-1,1H5a1,1,0,0,1-1-1V6A1,1,0,0,1,5,5H19a1,1,0,0,1,1,1Z" />
  </symbol>
  <symbol id="icon-emoji-sad" viewBox="0 0 24 24">
    <path d="M8.36,15.33a1,1,0,0,0-.13,1.4,1,1,0,0,0,1.41.13,3.76,3.76,0,0,1,4.72,0,1,1,0,0,0,.64.23,1,1,0,0,0,.64-1.76A5.81,5.81,0,0,0,8.36,15.33Zm.85-4.79a1,1,0,0,0,1.41,0,1,1,0,0,0,0-1.41,3.08,3.08,0,0,0-4.24,0,1,1,0,1,0,1.41,1.41A1,1,0,0,1,9.21,10.54ZM12,2A10,10,0,1,0,22,12,10,10,0,0,0,12,2Zm0,18a8,8,0,1,1,8-8A8,8,0,0,1,12,20ZM17.62,9.13a3.08,3.08,0,0,0-4.24,0,1,1,0,0,0,1.41,1.41,1,1,0,0,1,1.42,0,1,1,0,0,0,1.41,0A1,1,0,0,0,17.62,9.13Z" />
  </symbol>
  <symbol id="icon-envelope" viewBox="0 0 24 24">
    <path fill-rule="evenodd" clip-rule="evenodd" d="M2 7C2 5.34315 3.34315 4 5 4H19C20.6569 4 22 5.34315 22 7V17C22 18.6569 20.6569 20 19 20H5C3.34315 20 2 18.6569 2 17V7ZM4.26834 6.31832L11.4233 11.3689C11.769 11.6129 12.231 11.6129 12.5767 11.3689L19.7317 6.31832C19.5491 6.12247 19.2889 6 19 6H5C4.71114 6 4.45089 6.12247 4.26834 6.31832ZM20 8.57698L13.7301 13.0028C12.6929 13.735 11.3071 13.735 10.2699 13.0028L4 8.57698V17C4 17.5523 4.44772 18 5 18H19C19.5523 18 20 17.5523 20 17V8.57698Z" />
  </symbol>
  <symbol id="icon-facebook" viewBox="0 0 24 24">
      <path d="M20.9,2H3.1A1.1,1.1,0,0,0,2,3.1V20.9A1.1,1.1,0,0,0,3.1,22h9.58V14.25h-2.6v-3h2.6V9a3.64,3.64,0,0,1,3.88-4,20.26,20.26,0,0,1,2.33.12v2.7H17.3c-1.26,0-1.5.6-1.5,1.47v1.93h3l-.39,3H15.8V22h5.1A1.1,1.1,0,0,0,22,20.9V3.1A1.1,1.1,0,0,0,20.9,2Z" />
    </symbol>
  <symbol id="icon-file" viewBox="0 0 24 24">
    <path fill-rule="evenodd" clip-rule="evenodd" d="M4 5C4 3.34315 5.34315 2 7 2H14.1716C14.9672 2 15.7303 2.31607 16.2929 2.87868L19.1213 5.70711C19.6839 6.26972 20 7.03278 20 7.82843V19C20 20.6569 18.6569 22 17 22H7C5.34315 22 4 20.6569 4 19V5ZM7 4C6.44772 4 6 4.44772 6 5V19C6 19.5523 6.44772 20 7 20H17C17.5523 20 18 19.5523 18 19V7.82843C18 7.56321 17.8946 7.30886 17.7071 7.12132L14.8787 4.29289C14.6911 4.10536 14.4368 4 14.1716 4H7ZM8 10C8 9.44772 8.44772 9 9 9H15C15.5523 9 16 9.44772 16 10C16 10.5523 15.5523 11 15 11H9C8.44772 11 8 10.5523 8 10ZM8 14C8 13.4477 8.44772 13 9 13H13C13.5523 13 14 13.4477 14 14C14 14.5523 13.5523 15 13 15H9C8.44772 15 8 14.5523 8 14Z" />
  </symbol>
  <symbol id="icon-fold-down" viewBox="0 0 24 24">
    <path d="M12 19a.749.749 0 0 1-.53-.22l-3.25-3.25a.749.749 0 0 1 .326-1.275.749.749 0 0 1 .734.215L12 17.19l2.72-2.72a.749.749 0 0 1 1.275.326.749.749 0 0 1-.215.734l-3.25 3.25A.749.749 0 0 1 12 19Z" />
    <path d="M12 18a.75.75 0 0 1-.75-.75v-7.5a.75.75 0 0 1 1.5 0v7.5A.75.75 0 0 1 12 18ZM2.75 6a.75.75 0 0 1 .75-.75h1a.75.75 0 0 1 0 1.5h-1A.75.75 0 0 1 2.75 6Zm4 0a.75.75 0 0 1 .75-.75h1a.75.75 0 0 1 0 1.5h-1A.75.75 0 0 1 6.75 6Zm4 0a.75.75 0 0 1 .75-.75h1a.75.75 0 0 1 0 1.5h-1a.75.75 0 0 1-.75-.75Zm4 0a.75.75 0 0 1 .75-.75h1a.75.75 0 0 1 0 1.5h-1a.75.75 0 0 1-.75-.75Zm4 0a.75.75 0 0 1 .75-.75h1a.75.75 0 0 1 0 1.5h-1a.75.75 0 0 1-.75-.75Z" />
  </symbol>
  <symbol id="icon-fold-up" viewBox="0 0 24 24">
    <path d="M11.47 5.22a.75.75 0 0 1 1.06 0l3.25 3.25a.751.751 0 0 1-.018 1.042.751.751 0 0 1-1.042.018L12 6.81 9.28 9.53a.751.751 0 0 1-1.042-.018.751.751 0 0 1-.018-1.042Z" />
    <path d="M12 5.5a.75.75 0 0 1 .75.75v8a.75.75 0 0 1-1.5 0v-8A.75.75 0 0 1 12 5.5ZM2.75 18a.75.75 0 0 1 .75-.75h1a.75.75 0 0 1 0 1.5h-1a.75.75 0 0 1-.75-.75Zm4 0a.75.75 0 0 1 .75-.75h1a.75.75 0 0 1 0 1.5h-1a.75.75 0 0 1-.75-.75Zm4 0a.75.75 0 0 1 .75-.75h1a.75.75 0 0 1 0 1.5h-1a.75.75 0 0 1-.75-.75Zm4 0a.75.75 0 0 1 .75-.75h1a.75.75 0 0 1 0 1.5h-1a.75.75 0 0 1-.75-.75Zm4 0a.75.75 0 0 1 .75-.75h1a.75.75 0 0 1 0 1.5h-1a.75.75 0 0 1-.75-.75Z" />
  </symbol>
  <symbol id="icon-folder" viewBox="0 0 24 24">
    <path fill-rule="evenodd" d="M4.959 19.793A2.958 2.958 0 0 1 2 16.835V6.97A1.97 1.97 0 0 1 3.972 5h4.523c.523 0 1.025.208 1.395.578l1.887 1.888h5.016c1.09 0 1.973.883 1.973 1.972v7.396a2.959 2.959 0 0 1-2.96 2.96H4.96Zm-.987-2.958c0 .544.442.986.987.986h10.848a.986.986 0 0 0 .986-.987V9.438h-5.016a1.972 1.972 0 0 1-1.394-.578L8.495 6.972H3.972v9.863Z" clip-rule="evenodd" />
  </symbol>
  <symbol id="icon-folder-open" viewBox="0 0 24 24">
    <path fill-rule="evenodd" d="M4.959 19.793A2.958 2.958 0 0 1 2 16.835V6.97A1.97 1.97 0 0 1 3.972 5h4.523c.523 0 1.025.208 1.395.578l1.887 1.888h5.016c1.09 0 1.973.883 1.973 1.972v7.396a2.959 2.959 0 0 1-2.96 2.96H4.96Zm-.987-2.958c0 .544.442.986.987.986h10.848a.986.986 0 0 0 .986-.987V9.438h-5.016a1.972 1.972 0 0 1-1.394-.578L8.495 6.972H3.972v9.863Z" clip-rule="evenodd" />
    <path d="M3.465 16.528c-.633.984.075 2.279 1.245 2.279h12.214c.531 0 1.018-.285 1.281-.745l2.676-4.683a.986.986 0 0 0-.856-1.476H7.245a1.48 1.48 0 0 0-1.244.68l-2.536 3.945Z" />
    <path fill-rule="evenodd" d="M4.71 19.793c-1.95 0-3.13-2.157-2.074-3.799l2.536-3.944a2.466 2.466 0 0 1 2.074-1.133h12.779c1.514 0 2.464 1.636 1.712 2.951l-2.675 4.683a2.46 2.46 0 0 1-2.138 1.242H4.71Zm-.415-2.732c-.21.328.024.76.415.76h12.214a.488.488 0 0 0 .425-.249l2.676-4.682H7.245a.493.493 0 0 0-.414.226l-2.536 3.945Z" clip-rule="evenodd" />
  </symbol>
  <symbol id="icon-github" viewBox="0 0 24 24">
    <path d="M12,2.2467A10.00042,10.00042,0,0,0,8.83752,21.73419c.5.08752.6875-.21247.6875-.475,0-.23749-.01251-1.025-.01251-1.86249C7,19.85919,6.35,18.78423,6.15,18.22173A3.636,3.636,0,0,0,5.125,16.8092c-.35-.1875-.85-.65-.01251-.66248A2.00117,2.00117,0,0,1,6.65,17.17169a2.13742,2.13742,0,0,0,2.91248.825A2.10376,2.10376,0,0,1,10.2,16.65923c-2.225-.25-4.55-1.11254-4.55-4.9375a3.89187,3.89187,0,0,1,1.025-2.6875,3.59373,3.59373,0,0,1,.1-2.65s.83747-.26251,2.75,1.025a9.42747,9.42747,0,0,1,5,0c1.91248-1.3,2.75-1.025,2.75-1.025a3.59323,3.59323,0,0,1,.1,2.65,3.869,3.869,0,0,1,1.025,2.6875c0,3.83747-2.33752,4.6875-4.5625,4.9375a2.36814,2.36814,0,0,1,.675,1.85c0,1.33752-.01251,2.41248-.01251,2.75,0,.26251.1875.575.6875.475A10.0053,10.0053,0,0,0,12,2.2467Z" />
  </symbol>
  <symbol id="icon-home" viewBox="0 0 24 24">
    <path fill-rule="evenodd" d="M11.293 2.293a1 1 0 0 1 1.414 0l9 9a1 1 0 0 1-1.414 1.414L20 12.414V20a1 1 0 0 1-1 1h-5a1 1 0 0 1-1-1v-4h-2v4a1 1 0 0 1-1 1H5a1 1 0 0 1-1-1v-7.586l-.293.293a1 1 0 0 1-1.414-1.414l9-9zM6 10.414V19h3v-4a1 1 0 0 1 1-1h4a1 1 0 0 1 1 1v4h3v-8.586l-6-6-6 6z" clip-rule="evenodd" />
  </symbol>
  <symbol id="icon-info-circle" viewBox="0 0 24 24">
    <path d="M9.5 11a1 1 0 0 1 1-1H12a1 1 0 0 1 1 1v4h1a1 1 0 1 1 0 2h-4a1 1 0 1 1 0-2h1v-3h-.5a1 1 0 0 1-1-1ZM12 9a1.25 1.25 0 1 0 0-2.5A1.25 1.25 0 0 0 12 9Z" />
    <path fill-rule="evenodd" d="M2 12C2 6.477 6.477 2 12 2s10 4.477 10 10-4.477 10-10 10S2 17.523 2 12Zm10-8a8 8 0 1 0 0 16 8 8 0 0 0 0-16Z" clip-rule="evenodd" />
  </symbol>
  <symbol id="icon-instagram" viewBox="0 0 24 24">
    <path d="M17.34,5.46h0a1.2,1.2,0,1,0,1.2,1.2A1.2,1.2,0,0,0,17.34,5.46Zm4.6,2.42a7.59,7.59,0,0,0-.46-2.43,4.94,4.94,0,0,0-1.16-1.77,4.7,4.7,0,0,0-1.77-1.15,7.3,7.3,0,0,0-2.43-.47C15.06,2,14.72,2,12,2s-3.06,0-4.12.06a7.3,7.3,0,0,0-2.43.47A4.78,4.78,0,0,0,3.68,3.68,4.7,4.7,0,0,0,2.53,5.45a7.3,7.3,0,0,0-.47,2.43C2,8.94,2,9.28,2,12s0,3.06.06,4.12a7.3,7.3,0,0,0,.47,2.43,4.7,4.7,0,0,0,1.15,1.77,4.78,4.78,0,0,0,1.77,1.15,7.3,7.3,0,0,0,2.43.47C8.94,22,9.28,22,12,22s3.06,0,4.12-.06a7.3,7.3,0,0,0,2.43-.47,4.7,4.7,0,0,0,1.77-1.15,4.85,4.85,0,0,0,1.16-1.77,7.59,7.59,0,0,0,.46-2.43c0-1.06.06-1.4.06-4.12S22,8.94,21.94,7.88ZM20.14,16a5.61,5.61,0,0,1-.34,1.86,3.06,3.06,0,0,1-.75,1.15,3.19,3.19,0,0,1-1.15.75,5.61,5.61,0,0,1-1.86.34c-1,.05-1.37.06-4,.06s-3,0-4-.06A5.73,5.73,0,0,1,6.1,19.8,3.27,3.27,0,0,1,5,19.05a3,3,0,0,1-.74-1.15A5.54,5.54,0,0,1,3.86,16c0-1-.06-1.37-.06-4s0-3,.06-4A5.54,5.54,0,0,1,4.21,6.1,3,3,0,0,1,5,5,3.14,3.14,0,0,1,6.1,4.2,5.73,5.73,0,0,1,8,3.86c1,0,1.37-.06,4-.06s3,0,4,.06a5.61,5.61,0,0,1,1.86.34A3.06,3.06,0,0,1,19.05,5,3.06,3.06,0,0,1,19.8,6.1,5.61,5.61,0,0,1,20.14,8c.05,1,.06,1.37.06,4S20.19,15,20.14,16ZM12,6.87A5.13,5.13,0,1,0,17.14,12,5.12,5.12,0,0,0,12,6.87Zm0,8.46A3.33,3.33,0,1,1,15.33,12,3.33,3.33,0,0,1,12,15.33Z" />
  </symbol>
  <symbol id="icon-link" viewBox="0 0 24 24">
    <path d="M10,17.55,8.23,19.27a2.47,2.47,0,0,1-3.5-3.5l4.54-4.55a2.46,2.46,0,0,1,3.39-.09l.12.1a1,1,0,0,0,1.4-1.43A2.75,2.75,0,0,0,14,9.59a4.46,4.46,0,0,0-6.09.22L3.31,14.36a4.48,4.48,0,0,0,6.33,6.33L11.37,19A1,1,0,0,0,10,17.55ZM20.69,3.31a4.49,4.49,0,0,0-6.33,0L12.63,5A1,1,0,0,0,14,6.45l1.73-1.72a2.47,2.47,0,0,1,3.5,3.5l-4.54,4.55a2.46,2.46,0,0,1-3.39.09l-.12-.1a1,1,0,0,0-1.4,1.43,2.75,2.75,0,0,0,.23.21,4.47,4.47,0,0,0,6.09-.22l4.55-4.55A4.49,4.49,0,0,0,20.69,3.31Z" />
  </symbol>
  <symbol id="icon-list" viewBox="0 0 24 24">
    <path d="M4.987 7.142c.64 0 1.16-.52 1.16-1.16h.01c0-.64-.52-1.16-1.16-1.16-.64 0-1.16.53-1.16 1.16 0 .63.51 1.16 1.15 1.16Zm0 6.01a1.16 1.16 0 1 0-.002-2.322 1.16 1.16 0 0 0 .002 2.322Zm1.16 4.86a1.16 1.16 0 1 1-2.322-.002 1.16 1.16 0 0 1 2.322.002Zm3.3-13.03c-.42.02-.76.26-.79.66-.01.1-.01.21-.01.34 0 .07.003.133.006.192.002.052.004.101.004.148.03.4.37.64.79.66.71.03 2.13.06 4.91.06 2.78 0 4.2-.03 4.91-.06.42-.02.76-.26.79-.66.01-.1.01-.21.01-.34 0-.07-.003-.133-.005-.192a3.26 3.26 0 0 1-.005-.148c-.03-.4-.37-.64-.79-.66-.71-.03-2.13-.06-4.91-.06-2.78 0-4.2.03-4.91.06Zm-.79 6.68c.03-.4.37-.64.79-.66.71-.03 2.13-.06 4.91-.06 2.78 0 4.2.03 4.91.06.42.02.76.26.79.66 0 .047.002.095.005.148.002.059.005.123.005.192 0 .13 0 .24-.01.34-.03.4-.37.64-.79.66-.71.03-2.13.06-4.91.06-2.78 0-4.2-.03-4.91-.06-.42-.02-.76-.26-.79-.66 0-.047-.002-.096-.004-.148a3.746 3.746 0 0 1-.006-.192c0-.13 0-.24.01-.34Zm.79 5.35c-.42.02-.76.26-.79.66-.01.1-.01.21-.01.34 0 .07.003.133.006.192.002.052.004.101.004.148.03.4.37.64.79.66.71.03 2.13.06 4.91.06 2.78 0 4.2-.03 4.91-.06.42-.02.76-.26.79-.66.01-.1.01-.21.01-.34 0-.07-.003-.133-.005-.192a3.255 3.255 0 0 1-.005-.148c-.03-.4-.37-.64-.79-.66-.71-.03-2.13-.06-4.91-.06-2.78 0-4.2.03-4.91.06Z" />
  </symbol>
  <symbol id="icon-linkedin" viewBox="0 0 24 24">
    <path d="M20.47,2H3.53A1.45,1.45,0,0,0,2.06,3.43V20.57A1.45,1.45,0,0,0,3.53,22H20.47a1.45,1.45,0,0,0,1.47-1.43V3.43A1.45,1.45,0,0,0,20.47,2ZM8.09,18.74h-3v-9h3ZM6.59,8.48h0a1.56,1.56,0,1,1,0-3.12,1.57,1.57,0,1,1,0,3.12ZM18.91,18.74h-3V13.91c0-1.21-.43-2-1.52-2A1.65,1.65,0,0,0,12.85,13a2,2,0,0,0-.1.73v5h-3s0-8.18,0-9h3V11A3,3,0,0,1,15.46,9.5c2,0,3.45,1.29,3.45,4.06Z" />
  </symbol>
  <symbol id="icon-moon" viewBox="0 0 24 24">
    <path d="M9.36 3.293a1 1 0 0 1 .187 1.157A7.45 7.45 0 0 0 19.55 14.453a1 1 0 0 1 1.343 1.343 9.45 9.45 0 1 1-12.69-12.69 1 1 0 0 1 1.158.187zM6.823 6.67A7.45 7.45 0 0 0 17.33 17.179 9.45 9.45 0 0 1 6.821 6.67z" />
  </symbol>
  <symbol id="icon-sun" viewBox="0 0 24 24">
    <path d="M12 2a1 1 0 0 1 1 1v1a1 1 0 1 1-2 0V3a1 1 0 0 1 1-1zm7.071 2.929a1 1 0 0 1 0 1.414l-.707.707a1 1 0 1 1-1.414-1.414l.707-.707a1 1 0 0 1 1.414 0zm-14.142 0a1 1 0 0 1 1.414 0l.707.707A1 1 0 0 1 5.636 7.05l-.707-.707a1 1 0 0 1 0-1.414zM12 8a4 4 0 1 0 0 8 4 4 0 0 0 0-8zm-6 4a6 6 0 1 1 12 0 6 6 0 0 1-12 0zm-4 0a1 1 0 0 1 1-1h1a1 1 0 1 1 0 2H3a1 1 0 0 1-1-1zm17 0a1 1 0 0 1 1-1h1a1 1 0 1 1 0 2h-1a1 1 0 0 1-1-1zM5.636 16.95a1 1 0 0 1 1.414 1.414l-.707.707a1 1 0 0 1-1.414-1.414l.707-.707zm11.314 1.414a1 1 0 0 1 1.414-1.414l.707.707a1 1 0 0 1-1.414 1.414l-.707-.707zM12 19a1 1 0 0 1 1 1v1a1 1 0 1 1-2 0v-1a1 1 0 0 1 1-1z" />
  </symbol>
  <symbol id="icon-tag" viewBox="0 0 24 24">
    <path fill-rule="evenodd" d="M14.025 4.159c.083-.058.228-.103.452-.066l3.95.659a1 1 0 0 1 .822.822l.658 3.949c.037.224-.008.37-.066.452-.755 1.079-2.516 3.022-4.45 4.97-1.929 1.941-3.94 3.796-5.16 4.71a.424.424 0 0 1-.514.004c-1.71-1.186-4.19-3.665-5.376-5.376a.424.424 0 0 1 .004-.515c.914-1.22 2.769-3.23 4.71-5.158 1.948-1.935 3.891-3.696 4.97-4.451Zm.781-2.038c-.61-.102-1.317-.028-1.927.399-1.235.864-3.286 2.736-5.233 4.67-1.953 1.941-3.895 4.036-4.901 5.38a2.423 2.423 0 0 0-.048 2.853c1.323 1.907 3.973 4.557 5.88 5.88.865.6 2 .592 2.854-.047 1.343-1.007 3.438-2.948 5.379-4.902 1.934-1.947 3.806-3.998 4.67-5.232.427-.61.501-1.319.4-1.928l-.659-3.95a3 3 0 0 0-2.466-2.465l-3.949-.658ZM16.008 8l-.001.003c0 .002-.001.002-.002.002l-.002.002h-.006l-.002-.001-.002-.003v-.006c0-.002.001-.002.002-.002l.002-.002h.006c.002 0 .002.001.003.002v.002l.002.002V8ZM16 6.5a1.5 1.5 0 1 0 0 3 1.5 1.5 0 0 0 0-3Z" clip-rule="evenodd" />
  </symbol>
  <symbol id="icon-telegram" viewBox="0 0 24 24">
    <path d="M11.99432,2a10,10,0,1,0,10,10A9.99917,9.99917,0,0,0,11.99432,2Zm3.17951,15.15247a.70547.70547,0,0,1-1.002.3515l-2.71467-2.10938L9.71484,17.002a.29969.29969,0,0,1-.285.03894l.334-2.98846.01069.00848.00683-.059s4.885-4.44751,5.084-4.637c.20147-.189.135-.23.135-.23.01147-.23053-.36152,0-.36152,0L8.16632,13.299l-2.69549-.918s-.414-.1485-.453-.475c-.041-.324.46649-.5.46649-.5l10.717-4.25751s.881-.39252.881.25751Z" />
  </symbol>
  <symbol id="icon-twitter" viewBox="0 0 24 24">
    <path d="M22,5.8a8.49,8.49,0,0,1-2.36.64,4.13,4.13,0,0,0,1.81-2.27,8.21,8.21,0,0,1-2.61,1,4.1,4.1,0,0,0-7,3.74A11.64,11.64,0,0,1,3.39,4.62a4.16,4.16,0,0,0-.55,2.07A4.09,4.09,0,0,0,4.66,10.1,4.05,4.05,0,0,1,2.8,9.59v.05a4.1,4.1,0,0,0,3.3,4A3.93,3.93,0,0,1,5,13.81a4.9,4.9,0,0,1-.77-.07,4.11,4.11,0,0,0,3.83,2.84A8.22,8.22,0,0,1,3,18.34a7.93,7.93,0,0,1-1-.06,11.57,11.57,0,0,0,6.29,1.85A11.59,11.59,0,0,0,20,8.45c0-.17,0-.35,0-.53A8.43,8.43,0,0,0,22,5.8Z" />
  </symbol>
  <symbol id="icon-whatsapp" viewBox="0 0 24 24">
    <path d="M16.6 14c-.2-.1-1.5-.7-1.7-.8-.2-.1-.4-.1-.6.1-.2.2-.6.8-.8 1-.1.2-.3.2-.5.1-.7-.3-1.4-.7-2-1.2-.5-.5-1-1.1-1.4-1.7-.1-.2 0-.4.1-.5.1-.1.2-.3.4-.4.1-.1.2-.3.2-.4.1-.1.1-.3 0-.4-.1-.1-.6-1.3-.8-1.8-.1-.7-.3-.7-.5-.7h-.5c-.2 0-.5.2-.6.3-.6.6-.9 1.3-.9 2.1.1.9.4 1.8 1 2.6 1.1 1.6 2.5 2.9 4.2 3.7.5.2.9.4 1.4.5.5.2 1 .2 1.6.1.7-.1 1.3-.6 1.7-1.2.2-.4.2-.8.1-1.2l-.4-.2m2.5-9.1C15.2 1 8.9 1 5 4.9c-3.2 3.2-3.8 8.1-1.6 12L2 22l5.3-1.4c1.5.8 3.1 1.2 4.7 1.2 5.5 0 9.9-4.4 9.9-9.9.1-2.6-1-5.1-2.8-7m-2.7 14c-1.3.8-2.8 1.3-4.4 1.3-1.5 0-2.9-.4-4.2-1.1l-.3-.2-3.1.8.8-3-.2-.3c-2.4-4-1.2-9 2.7-11.5S16.6 3.7 19 7.5c2.4 3.9 1.3 9-2.6 11.4" />
  </symbol>
</svg>
